<mxfile host="Electron" agent="Mozilla/5.0 (Macintosh; Intel Mac OS X 10_15_7) AppleWebKit/537.36 (KHTML, like Gecko) draw.io/26.1.1 Chrome/132.0.6834.210 Electron/34.3.3 Safari/537.36" version="26.1.1">
  <diagram name="Page-1" id="gvYfwpXi6kHplENIKg0h">
    <mxGraphModel dx="922" dy="286" grid="1" gridSize="10" guides="1" tooltips="1" connect="1" arrows="1" fold="1" page="1" pageScale="1" pageWidth="850" pageHeight="1100" math="1" shadow="0">
      <root>
        <mxCell id="0" />
        <mxCell id="1" parent="0" />
        <mxCell id="aRuEHenmv70enHzgzGc--20" value="" style="rounded=0;whiteSpace=wrap;html=1;fillColor=none;" vertex="1" parent="1">
          <mxGeometry x="270" y="274" width="210" height="196" as="geometry" />
        </mxCell>
        <mxCell id="aRuEHenmv70enHzgzGc--21" value="\( \mu_\zeta \)" style="ellipse;whiteSpace=wrap;html=1;aspect=fixed;" vertex="1" parent="1">
          <mxGeometry x="260" y="220" width="50" height="50" as="geometry" />
        </mxCell>
        <mxCell id="aRuEHenmv70enHzgzGc--22" value="\( \tau_\zeta \)" style="ellipse;whiteSpace=wrap;html=1;aspect=fixed;" vertex="1" parent="1">
          <mxGeometry x="320" y="220" width="50" height="50" as="geometry" />
        </mxCell>
        <mxCell id="aRuEHenmv70enHzgzGc--23" value="\( \mu_\omega \)" style="ellipse;whiteSpace=wrap;html=1;aspect=fixed;" vertex="1" parent="1">
          <mxGeometry x="380" y="220" width="50" height="50" as="geometry" />
        </mxCell>
        <mxCell id="aRuEHenmv70enHzgzGc--24" value="\( \tau_\omega \)" style="ellipse;whiteSpace=wrap;html=1;aspect=fixed;" vertex="1" parent="1">
          <mxGeometry x="440" y="220" width="50" height="50" as="geometry" />
        </mxCell>
        <mxCell id="aRuEHenmv70enHzgzGc--25" value="\( \zeta_i \)" style="ellipse;whiteSpace=wrap;html=1;aspect=fixed;" vertex="1" parent="1">
          <mxGeometry x="290" y="290" width="50" height="50" as="geometry" />
        </mxCell>
        <mxCell id="aRuEHenmv70enHzgzGc--26" value="\( \omega_i \)" style="ellipse;whiteSpace=wrap;html=1;aspect=fixed;" vertex="1" parent="1">
          <mxGeometry x="410" y="290" width="50" height="50" as="geometry" />
        </mxCell>
        <mxCell id="aRuEHenmv70enHzgzGc--27" value="" style="endArrow=classic;html=1;rounded=0;exitX=0.5;exitY=1;exitDx=0;exitDy=0;entryX=0.262;entryY=0.035;entryDx=0;entryDy=0;entryPerimeter=0;" edge="1" parent="1" target="aRuEHenmv70enHzgzGc--25">
          <mxGeometry width="50" height="50" relative="1" as="geometry">
            <mxPoint x="290" y="270" as="sourcePoint" />
            <mxPoint x="308" y="300" as="targetPoint" />
          </mxGeometry>
        </mxCell>
        <mxCell id="aRuEHenmv70enHzgzGc--28" value="" style="endArrow=classic;html=1;rounded=0;exitX=0.316;exitY=0.958;exitDx=0;exitDy=0;exitPerimeter=0;entryX=0.724;entryY=0.058;entryDx=0;entryDy=0;entryPerimeter=0;" edge="1" parent="1" source="aRuEHenmv70enHzgzGc--22" target="aRuEHenmv70enHzgzGc--25">
          <mxGeometry width="50" height="50" relative="1" as="geometry">
            <mxPoint x="300" y="280" as="sourcePoint" />
            <mxPoint x="325" y="291" as="targetPoint" />
          </mxGeometry>
        </mxCell>
        <mxCell id="aRuEHenmv70enHzgzGc--29" value="" style="endArrow=classic;html=1;rounded=0;exitX=0.316;exitY=0.958;exitDx=0;exitDy=0;exitPerimeter=0;entryX=0.724;entryY=0.058;entryDx=0;entryDy=0;entryPerimeter=0;" edge="1" parent="1">
          <mxGeometry width="50" height="50" relative="1" as="geometry">
            <mxPoint x="460" y="270" as="sourcePoint" />
            <mxPoint x="450" y="295" as="targetPoint" />
          </mxGeometry>
        </mxCell>
        <mxCell id="aRuEHenmv70enHzgzGc--30" value="" style="endArrow=classic;html=1;rounded=0;exitX=0.5;exitY=1;exitDx=0;exitDy=0;entryX=0.262;entryY=0.035;entryDx=0;entryDy=0;entryPerimeter=0;" edge="1" parent="1">
          <mxGeometry width="50" height="50" relative="1" as="geometry">
            <mxPoint x="410" y="270" as="sourcePoint" />
            <mxPoint x="423" y="292" as="targetPoint" />
          </mxGeometry>
        </mxCell>
        <mxCell id="aRuEHenmv70enHzgzGc--31" value="" style="rounded=0;whiteSpace=wrap;html=1;fillColor=none;" vertex="1" parent="1">
          <mxGeometry x="310" y="350" width="130" height="90" as="geometry" />
        </mxCell>
        <mxCell id="aRuEHenmv70enHzgzGc--32" value="\( y_{ij} \)" style="ellipse;whiteSpace=wrap;html=1;aspect=fixed;fillColor=#CCCCCC;" vertex="1" parent="1">
          <mxGeometry x="353" y="360" width="50" height="50" as="geometry" />
        </mxCell>
        <mxCell id="aRuEHenmv70enHzgzGc--33" value="\( j = 1, \dots, N_{\text{obs}} \)" style="text;html=1;strokeColor=none;fillColor=none;align=center;verticalAlign=middle;whiteSpace=wrap;rounded=0;" vertex="1" parent="1">
          <mxGeometry x="328" y="410" width="100" height="30" as="geometry" />
        </mxCell>
        <mxCell id="aRuEHenmv70enHzgzGc--34" value="\( i = 1, ..., N_\text{cars} \)" style="text;html=1;strokeColor=none;fillColor=none;align=center;verticalAlign=middle;whiteSpace=wrap;rounded=0;" vertex="1" parent="1">
          <mxGeometry x="370" y="440" width="100" height="30" as="geometry" />
        </mxCell>
        <mxCell id="aRuEHenmv70enHzgzGc--35" value="" style="endArrow=classic;html=1;rounded=0;exitX=0.316;exitY=0.958;exitDx=0;exitDy=0;exitPerimeter=0;entryX=1;entryY=0;entryDx=0;entryDy=0;" edge="1" parent="1" target="aRuEHenmv70enHzgzGc--32">
          <mxGeometry width="50" height="50" relative="1" as="geometry">
            <mxPoint x="420" y="335" as="sourcePoint" />
            <mxPoint x="410" y="360" as="targetPoint" />
          </mxGeometry>
        </mxCell>
        <mxCell id="aRuEHenmv70enHzgzGc--36" value="" style="endArrow=classic;html=1;rounded=0;exitX=1;exitY=1;exitDx=0;exitDy=0;entryX=0;entryY=0;entryDx=0;entryDy=0;" edge="1" parent="1" source="aRuEHenmv70enHzgzGc--25" target="aRuEHenmv70enHzgzGc--32">
          <mxGeometry width="50" height="50" relative="1" as="geometry">
            <mxPoint x="430" y="345" as="sourcePoint" />
            <mxPoint x="406" y="377" as="targetPoint" />
          </mxGeometry>
        </mxCell>
        <mxCell id="aRuEHenmv70enHzgzGc--37" value="\( x_0 \)" style="ellipse;whiteSpace=wrap;html=1;aspect=fixed;" vertex="1" parent="1">
          <mxGeometry x="210" y="360" width="50" height="50" as="geometry" />
        </mxCell>
        <mxCell id="aRuEHenmv70enHzgzGc--38" value="" style="endArrow=classic;html=1;rounded=0;exitX=1;exitY=0.5;exitDx=0;exitDy=0;entryX=0;entryY=0.5;entryDx=0;entryDy=0;" edge="1" parent="1" source="aRuEHenmv70enHzgzGc--37" target="aRuEHenmv70enHzgzGc--32">
          <mxGeometry width="50" height="50" relative="1" as="geometry">
            <mxPoint x="343" y="343" as="sourcePoint" />
            <mxPoint x="370" y="377" as="targetPoint" />
          </mxGeometry>
        </mxCell>
      </root>
    </mxGraphModel>
  </diagram>
</mxfile>
